<svg xmlns="http://www.w3.org/2000/svg" width="138" height="175" viewBox="0 0 138 175"><rect width="100%" height="100%" fill="#DDDDDD"/><path fill="#999999" d="M37.975 78.015h2.49v15.18h-1.45q-.33 0-.56-.11-.23-.11-.44-.37l-7.92-10.13q.06.7.06 1.29v9.32h-2.49v-15.18h1.48q.18 0 .31.01.13.02.23.07.1.04.2.13.09.09.21.24l7.96 10.16q-.04-.37-.06-.72-.02-.36-.02-.66v-9.23Zm10.23 4.24q1.2 0 2.18.39.98.39 1.68 1.1.7.71 1.07 1.74.38 1.03.38 2.3 0 1.28-.38 2.31-.37 1.03-1.07 1.76-.7.72-1.68 1.11-.98.39-2.18.39-1.21 0-2.2-.39-.98-.39-1.68-1.11-.7-.73-1.08-1.76-.39-1.03-.39-2.31 0-1.27.39-2.3.38-1.03 1.08-1.74.7-.71 1.68-1.1.99-.39 2.2-.39Zm0 9.1q1.34 0 1.99-.9.64-.9.64-2.65 0-1.74-.64-2.65-.65-.92-1.99-.92-1.37 0-2.02.92-.66.92-.66 2.65 0 1.74.66 2.64.65.91 2.02.91Zm10.54-13.34v15.18h-2.83v-15.18h2.83Zm5.58 15.18h-2.6v-10.77h1.59q.5 0 .66.47l.17.8q.28-.32.59-.58.31-.26.66-.45.35-.19.76-.3.4-.11.89-.11 1.01 0 1.67.55.66.55.98 1.46.25-.53.63-.91.38-.39.83-.63.45-.24.96-.36.51-.11 1.03-.11.89 0 1.58.27.7.27 1.17.8.47.52.72 1.28.24.76.24 1.73v6.86h-2.59v-6.86q0-1.03-.45-1.55t-1.32-.52q-.4 0-.74.14-.35.14-.6.4-.26.25-.41.64-.14.39-.14.89v6.86h-2.61v-6.86q0-1.08-.43-1.57-.44-.5-1.28-.5-.57 0-1.06.28-.48.28-.9.76v7.89Zm20.68-2.78v-1.82q-1.12.05-1.89.2-.76.14-1.23.36-.46.22-.66.51-.2.3-.2.64 0 .68.41.98.4.29 1.05.29.8 0 1.38-.29.59-.28 1.14-.87Zm-5.48-5.66-.46-.83q1.86-1.7 4.47-1.7.95 0 1.69.31.75.31 1.26.86.52.55.78 1.32.27.76.27 1.68v6.8h-1.17q-.37 0-.57-.11-.2-.11-.32-.45l-.23-.77q-.41.36-.79.64-.39.28-.81.47-.42.19-.9.29-.48.1-1.06.1-.68 0-1.26-.19-.57-.18-.99-.55-.42-.36-.65-.91-.24-.55-.24-1.27 0-.41.14-.81.14-.41.45-.78.31-.36.8-.69.49-.33 1.21-.57.72-.24 1.68-.39.95-.15 2.18-.18v-.63q0-1.09-.46-1.61t-1.33-.52q-.63 0-1.05.15-.41.15-.73.33-.31.19-.57.33-.26.15-.57.15-.28 0-.46-.14-.19-.14-.31-.33Zm14.39 2.79q.48 0 .84-.13.35-.13.59-.36.24-.23.36-.56.12-.32.12-.71 0-.8-.48-1.27t-1.43-.47q-.96 0-1.44.47t-.48 1.27q0 .37.13.7.12.33.35.56.24.24.6.37t.84.13Zm2.93 6.13q0-.31-.19-.51t-.52-.31q-.32-.11-.76-.16-.44-.06-.92-.08-.49-.03-1.01-.05-.52-.02-1.01-.08-.44.24-.7.56-.27.33-.27.76 0 .28.14.53t.45.42q.31.18.81.28.49.1 1.2.1.73 0 1.25-.11.53-.11.87-.3.34-.2.5-.46.16-.27.16-.59Zm-.52-10.89h3.1v.97q0 .46-.56.57l-.96.18q.22.55.22 1.21 0 .8-.32 1.45-.32.64-.89 1.09-.57.46-1.34.7-.77.25-1.66.25-.32 0-.61-.03-.3-.03-.58-.09-.5.31-.5.69 0 .32.29.47.3.16.8.22.49.06 1.12.08.63.01 1.29.07.66.05 1.29.18t1.13.42q.49.28.79.77.3.49.3 1.25 0 .72-.35 1.39-.35.67-1.02 1.2-.67.52-1.64.84-.97.32-2.21.32-1.22 0-2.12-.24-.9-.23-1.5-.63-.6-.39-.89-.9-.3-.52-.3-1.07 0-.76.46-1.27t1.25-.81q-.43-.22-.68-.59-.25-.37-.25-.97 0-.24.09-.5.09-.25.26-.51.17-.25.44-.47.26-.23.62-.41-.82-.44-1.29-1.17-.47-.74-.47-1.73 0-.79.32-1.44.32-.65.89-1.1.58-.46 1.36-.7.78-.24 1.71-.24.69 0 1.3.14.61.14 1.11.41Zm6.78 3.78h4.9q0-.5-.14-.95-.15-.44-.43-.78-.28-.33-.72-.53-.44-.19-1.01-.19-1.13 0-1.77.64-.65.64-.83 1.81Zm6.62 1.57h-6.67q.06.83.3 1.43.23.61.6 1 .38.39.9.59.52.19 1.15.19.63 0 1.09-.15.46-.14.8-.32t.59-.33q.26-.14.5-.14.33 0 .49.24l.74.94q-.43.51-.96.85-.54.34-1.12.54-.58.21-1.19.29-.6.09-1.17.09-1.12 0-2.09-.38-.96-.37-1.68-1.1-.71-.73-1.12-1.8-.41-1.08-.41-2.5 0-1.1.36-2.07.35-.97 1.02-1.69t1.63-1.14q.96-.42 2.16-.42 1.02 0 1.88.32.87.33 1.48.95.62.63.98 1.54.35.91.35 2.07 0 .59-.13.79-.12.21-.48.21Z"/></svg>